<svg xmlns="http://www.w3.org/2000/svg" id="_레이어_1" version="1.1" viewBox="0 0 3962.77 1211.03"><defs><style>.st0{fill:#ffb14e}.st1{fill:none}.st2{fill:#f66479}.st3{fill:#31a4a9}</style></defs><path d="M2375.6 997.74h40.25v116.38h24.3V997.74h40.06v-20.5H2375.6zM2349.43 988.92c-5.32-4.75-11.49-8.22-18.52-10.44s-14.4-3.33-22.12-3.33-15.09 1.11-22.12 3.33-13.2 5.69-18.52 10.44c-5.31 4.75-9.51 10.86-12.62 18.32q-4.65 11.205-4.65 27.15v22.59c0 10.75 1.55 19.9 4.65 27.43s7.28 13.64 12.53 18.32c5.25 4.69 11.39 8.11 18.41 10.26 7.02 2.14 14.47 3.22 22.31 3.22s15.29-1.07 22.31-3.22c7.02-2.16 13.16-5.58 18.41-10.26s9.42-10.79 12.53-18.32c3.1-7.53 4.65-16.67 4.65-27.43h.02v-22.59q0-15.945-4.65-27.15c-3.1-7.46-7.3-13.57-12.62-18.32m-7.25 65.03c0 7.85-.85 14.37-2.56 19.56-1.7 5.19-4.07 9.3-7.11 12.34s-6.59 5.16-10.63 6.36c-4.05 1.21-8.54 1.81-13.1 1.81s-8.86-.6-12.91-1.81c-4.05-1.2-7.59-3.32-10.63-6.36s-5.45-7.15-7.22-12.34-2.65-11.71-2.65-19.56v-16.52c0-7.84.88-14.36 2.65-19.55s4.18-9.31 7.22-12.35 6.58-5.16 10.63-6.36c4.05-1.21 8.23-1.81 12.91-1.81s9.04.61 13.1 1.81c4.04 1.2 7.59 3.32 10.63 6.36 3.03 3.05 5.41 7.16 7.11 12.35 1.71 5.19 2.56 11.71 2.56 19.55zM2614.26 1078.63l-27.54-101.39h-23.35l-27.72 101.57-25.06-101.57h-25.25l37.21 136.88h23.54l28.86-105.37 27.72 105.37h23.17l37.78-136.88h-23.35zM493.16 458.08h-7.86c-128.3 0-232.3 104-232.3 232.3s104 232.3 232.3 232.3h7.86c128.3 0 232.3-104 232.3-232.3s-104-232.3-232.3-232.3" class="st1"/><path d="M1808.18 517.76a264.1 264.1 0 0 1-35.36 69.81c43.44-8.07 98.04-24.24 154.39-57.7 167.54-99.5 222.37-275.83 236.49-327.65-261.67.35-523.34.71-785.01 1.07-29.36 92.05-55.8 175.87-85.3 268.33h.07c-79.63 236.37-159.25 472.74-238.88 709.11h281.83c79.95-237.09 159.91-474.17 239.86-711.26h243.04a266 266 0 0 1-11.13 48.29" class="st2"/><path d="M1079.72 203.7c-29.68 89.3-59.36 178.61-89.04 267.92h302.71c29.51-92.46 55.94-176.28 85.3-268.33-99.66.14-199.31.27-298.97.41" class="st3"/><path d="M2542.61 680.09c-.48-5.17-5.16-9.22-11.22-10.01-6.13-.8-13.47-1.82-19.61-2.64-6.47-.86-12.92-1.92-19.34-3.11-8.2-1.51-16.36-3.26-24.47-5.23a433 433 0 0 1-28.04-7.81c-10.26-3.23-20.4-6.86-30.37-10.9a361 361 0 0 1-29.99-13.77c-.49-.25-.98-.49-1.47-.74-10.77-5.62-21.24-11.81-31.31-18.62-10.47-7.08-20.49-14.83-29.92-23.25-9.8-8.75-18.95-18.23-27.29-28.39a243 243 0 0 1-23.42-34.04 246 246 0 0 1-9.13-17.69c-2.88-6.18-5.07-12.63-7.85-18.83-1.86-4.14-3.09-8.69-4.45-13.07-5.25-16.92-8.8-34.62-10.35-52.96-1.37-16.16-1.18-32.81.65-49.78 1.63-15.04 4.42-30.41 8.77-45.8 1.39-4.93 3.05-9.86 4.64-14.79l47.51-130.54c3.36-9.22-2.33-16.76-12.64-16.76s-21.48 7.54-24.84 16.76l-41.56 114.2c-3.91 10.38-7.95 20.75-12.57 31.13-6.86 15.4-15.25 30.76-24.57 45.8-10.52 16.97-22.45 33.62-35.58 49.78-14.9 18.34-31.33 36.04-48.9 52.96-4.55 4.38-9.09 8.93-13.96 13.07a699 699 0 0 1-67.59 54.25 715 715 0 0 1-67.98 42.44c-21.42 11.78-43.43 22.47-65.91 32.08a764 764 0 0 1-61.39 23.17 761 761 0 0 1-54.42 15.7c-14.89 3.7-29.9 6.95-44.99 9.68-15.76 2.86-31.57 4.87-47.48 6.61-10.96 1.2-23.26 4.57-27.98 15.66l-.14.34c-2.44 5.99-1.48 13.54 5.09 16.24 2.08.85 4.32 1.18 6.55 1.5 17.79 2.55 35.66 4.75 53.21 8.68 14.91 3.34 29.65 7.44 44.13 12.34 16.8 5.68 33.24 12.44 49.09 20.42 17.25 8.68 33.79 18.81 49.15 30.51 16.34 12.45 31.33 26.7 44.32 42.63a243.9 243.9 0 0 1 34.6 56.76c1.9 4.36 3.67 8.77 5.32 13.23 1.86 4.14 3.09 8.69 4.45 13.07 5.25 16.92 8.8 34.62 10.35 52.96 1.37 16.16 1.18 32.81-.65 49.78-1.63 15.04-4.42 30.41-8.77 45.8-2.93 10.37-6.44 20.75-10.09 31.13l-41.57 114.23c-3.36 9.22 2.33 16.76 12.64 16.76s21.48-7.54 24.84-16.76l47.52-130.56c2-4.93 3.93-9.86 6.12-14.79 6.86-15.4 15.25-30.76 24.57-45.8 10.52-16.97 22.45-33.62 35.58-49.78 14.9-18.34 31.33-36.04 48.9-52.96 4.55-4.38 9.09-8.93 13.96-13.07a694 694 0 0 1 45.42-37.95 706 706 0 0 1 45.96-32.37c14.9-9.64 30.17-18.71 45.74-27.23 14.66-8.01 29.6-15.53 44.77-22.53a757 757 0 0 1 43.05-18.28c13.39-5.2 26.92-10.03 40.58-14.47a739 739 0 0 1 11.29-3.56c8.64-2.66 17.33-5.18 26.07-7.54a735 735 0 0 1 33.38-8.17c17.26-3.74 34.68-7.19 52.24-9.16 8.98-1.01 18.71-2.06 27.59-3.82 7.69-1.52 14.48-4.08 19.59-10.3 1.4-1.7 2.56-3.65 3.3-5.73h.04c.7-1.96 1.03-4.03.83-6.11" class="st2"/><path d="M2637.89 263.25c-3.97-11.84-3.8-25 1.65-36.21.55-1.12 1.15-2.25 1.82-3.38 7.71-13.04 19.12-18.17 22.79-19.64H2392.3c3.54 2.33 7.18 4.85 10.9 7.58 7.39 5.43 12.82 13.23 15.75 22.06l226.84 683h211.35c-73.09-217.8-146.17-435.6-219.25-653.41" class="st0"/><path d="M514.63 209.28h-58.14C205.43 209.28.01 414.7.01 665.76v53.43c0 251.06 205.42 456.48 456.48 456.48h58.14c251.06 0 456.48-205.42 456.48-456.48v-53.43c0-251.06-205.42-456.48-456.48-456.48m-21.47 713.4h-7.86c-128.3 0-232.3-104-232.3-232.3s104-232.3 232.3-232.3h7.86c128.3 0 232.3 104 232.3 232.3s-104 232.3-232.3 232.3" class="st3"/><path d="M3930.16 203.92h-91.86c4.09.74 17.54 3.72 27.89 16.21 13.92 16.77 10.96 37.09 10.48 40.08-84.75 246.44-169.5 492.88-254.26 739.33l-247.05-736.23c-3.98-11.85-3.84-25.03 1.6-36.24.55-1.14 1.17-2.29 1.84-3.43 7.71-13.04 19.12-18.17 22.79-19.64h-264.82c-.2-.02-.42-.05-.61-.07h-30.12c4.9 1.84 14.78 6.31 23.44 16.48 10.22 12.11 13.41 28.89 8.37 44.06l-16.19 48.79c-5.28 15.91-10.56 31.82-15.84 47.74-5.28 15.91-10.56 31.82-15.84 47.74-5.28 15.91-10.56 31.82-15.84 47.74-5.28 15.91-10.56 31.82-15.84 47.74-5.28 15.91-10.56 31.82-15.84 47.74-5.28 15.91-10.56 31.82-15.84 47.74-5.28 15.91-10.56 31.82-15.84 47.74-5.28 15.91-10.56 31.82-15.84 47.74-5.28 15.91-10.56 31.82-15.84 47.74-5.28 15.91-10.56 31.82-15.84 47.74s-10.56 31.82-15.84 47.74c-5.28 15.91-10.56 31.82-15.84 47.74-5.28 15.91-10.56 31.82-15.84 47.74-5.28 15.91-10.56 31.83-15.84 47.74-.74 2.23-1.48 4.46-2.22 6.68-.78 2.34-1.19 4.5-2.75 6.5-2.31 2.98-5.99 4.68-9.76 5.38-9.34-27.84-18.68-55.68-28.03-83.52h-211.35l.21.62h-497.47c-25.35 0-46.09 20.74-46.09 46.09v171.28c0 25.35 20.74 46.09 46.09 46.09h584.97l.02.06h238.87c-5.02-1.39-15.49-5.04-25.14-14.73-8.88-8.91-12.72-18.58-14.34-23.61-.04-.12-.08-.23-.12-.35-7.43-22.13-7.28-46.21.38-68.26 85.82-247.13 168.83-493.73 256.64-739.73l281.2 846.67h211.39c-7.02-21.33-14.03-42.67-21.05-64l-.02-.06c-2.85-8.47-5.63-16.97-8.38-25.48-3.28-9.97-6.56-19.95-9.84-29.92-.26-1.07 1.42-4.14 1.8-5.23.71-2.06 1.42-4.12 2.12-6.18 1.36-3.96 2.72-7.93 4.08-11.89 2.72-7.93 5.44-15.85 8.17-23.78 5.44-15.85 10.89-31.71 16.33-47.56 10.89-31.71 21.78-63.42 32.66-95.12 10.89-31.71 21.78-63.42 32.66-95.12 10.89-31.71 21.78-63.42 32.66-95.12 10.89-31.71 21.78-63.42 32.66-95.12 10.89-31.71 21.78-63.42 32.66-95.12s21.78-63.42 32.66-95.12c10.89-31.71 21.78-63.42 32.66-95.12 4.27-12.44 8.33-25.3 13.53-37.5 5.37-12.58 12.29-24.01 20.58-34.77 4.49-5.82 12.24-14.81 24.42-24.59-10.81 0-21.62 0-32.6-.07M2366.7 1056.98h-.02c0 10.76-1.55 19.9-4.65 27.43-3.11 7.53-7.28 13.64-12.53 18.32s-11.39 8.1-18.41 10.26c-7.02 2.15-14.47 3.22-22.31 3.22s-15.29-1.08-22.31-3.22c-7.02-2.15-13.16-5.57-18.41-10.26-5.25-4.68-9.43-10.79-12.53-18.32s-4.65-16.68-4.65-27.43v-22.59q0-15.945 4.65-27.15c3.11-7.46 7.31-13.57 12.62-18.32 5.32-4.75 11.49-8.22 18.52-10.44s14.4-3.33 22.12-3.33 15.09 1.11 22.12 3.33 13.2 5.69 18.52 10.44 9.52 10.86 12.62 18.32q4.65 11.205 4.65 27.15zm113.51-59.24h-40.06v116.38h-24.3V997.74h-40.25v-20.5h104.61zm145.63 116.38h-23.17l-27.72-105.37-28.86 105.37h-23.54l-37.21-136.88h25.25l25.06 101.57 27.72-101.57h23.35l27.54 101.39 26.01-101.39h23.35z" class="st2"/><path d="M2332.51 1005.53c-3.04-3.04-6.59-5.16-10.63-6.36-4.06-1.2-8.42-1.81-13.1-1.81s-8.86.6-12.91 1.81c-4.05 1.2-7.59 3.32-10.63 6.36s-5.45 7.16-7.22 12.35-2.65 11.71-2.65 19.55v16.52c0 7.85.88 14.37 2.65 19.56s4.18 9.3 7.22 12.34 6.58 5.16 10.63 6.36c4.05 1.21 8.35 1.81 12.91 1.81s9.05-.6 13.1-1.81c4.04-1.2 7.59-3.32 10.63-6.36s5.41-7.15 7.11-12.34c1.71-5.19 2.56-11.71 2.56-19.56v-16.52c0-7.84-.85-14.36-2.56-19.55-1.7-5.19-4.08-9.3-7.11-12.35" class="st2"/><path d="M817.57 172.49c.66.27 1.38.38 2.09.48 5.68.81 11.39 1.52 17 2.77 4.76 1.07 9.48 2.38 14.1 3.94 5.37 1.82 10.62 3.98 15.68 6.52 5.51 2.77 10.8 6.01 15.71 9.75 5.22 3.98 10.01 8.53 14.16 13.62a78.1 78.1 0 0 1 12.76 22.37c.59 1.32.99 2.78 1.42 4.18a80 80 0 0 1 3.31 16.92c.44 5.16.38 10.48-.21 15.9-.52 4.81-1.41 9.72-2.8 14.63-.94 3.31-2.06 6.63-3.22 9.95l-13.28 36.5c-1.07 2.95.74 5.36 4.04 5.36s6.86-2.41 7.94-5.36l15.18-41.72c.64-1.58 1.25-3.15 1.96-4.73 2.19-4.92 4.87-9.83 7.85-14.63 3.36-5.42 7.17-10.74 11.37-15.9 4.76-5.86 10.01-11.52 15.62-16.92 1.45-1.4 2.9-2.85 4.46-4.18 4.66-4.25 9.51-8.29 14.51-12.13 4.75-3.64 9.65-7.09 14.68-10.34 4.76-3.08 9.64-5.98 14.61-8.7a239 239 0 0 1 28.07-13.04 247 247 0 0 1 24.91-8.17c3.53-.95 7.09-1.82 10.67-2.61 5.51-1.19 11.08-2.3 16.69-2.93 2.87-.32 5.98-.66 8.82-1.22 2.46-.49 4.63-1.3 6.26-3.29.45-.54.82-1.17 1.05-1.83.22-.62.33-1.28.27-1.94-.2-2.13-2.02-3.17-3.95-3.42-1.96-.26-3.94-.36-5.9-.62q-3.105-.42-6.18-.99c-2.62-.48-5.23-1.04-7.82-1.67-3.01-.73-6-1.56-8.96-2.5-3.28-1.03-6.52-2.19-9.7-3.48-3.42-1.39-6.78-2.93-10.05-4.64-3.44-1.8-6.79-3.77-10-5.95a90 90 0 0 1-9.56-7.43c-3.13-2.8-6.05-5.83-8.72-9.07-2.8-3.41-5.3-7.05-7.48-10.88a79 79 0 0 1-2.92-5.65c-.92-1.97-1.62-4.04-2.51-6.02-.59-1.32-.99-2.78-1.42-4.18a80 80 0 0 1-3.31-16.92 82.3 82.3 0 0 1 .21-15.9c.52-4.81 1.41-9.72 2.8-14.63.45-1.58.98-3.15 1.48-4.72l15.18-41.71c1.07-2.95-.74-5.36-4.04-5.36s-6.86 2.41-7.94 5.36l-13.28 36.49c-1.25 3.32-2.54 6.63-4.02 9.95-2.19 4.92-4.87 9.83-7.85 14.63-3.36 5.42-7.17 10.74-11.37 15.9-4.76 5.86-10.01 11.52-15.62 16.92-1.45 1.4-2.9 2.85-4.46 4.18a222 222 0 0 1-21.6 17.33 230 230 0 0 1-21.72 13.56 238 238 0 0 1-21.06 10.25c-6.43 2.75-12.97 5.22-19.61 7.4a243 243 0 0 1-17.39 5.02c-4.76 1.18-9.55 2.22-14.38 3.09-5.03.91-10.09 1.55-15.17 2.11-3.5.38-7.43 1.46-8.94 5l-.05.11c-.78 1.91-.47 4.33 1.63 5.19" class="st0"/><path d="M2862.13 189.91a243 243 0 0 1-17.39 5.02c-4.76 1.18-9.55 2.22-14.38 3.09-5.03.91-10.09 1.55-15.17 2.11-3.5.38-7.43 1.46-8.94 5l-.05.11c-.78 1.91-.47 4.33 1.63 5.19.66.27 1.38.38 2.09.48 5.68.81 11.39 1.52 17 2.77 4.76 1.07 9.48 2.38 14.1 3.94 5.37 1.82 10.62 3.98 15.68 6.52 5.51 2.77 10.8 6.01 15.71 9.75 5.22 3.98 10.01 8.53 14.16 13.62.01.01.02.03.03.04v-67.19c-1.61.73-3.23 1.45-4.86 2.15-6.43 2.75-12.97 5.22-19.61 7.4M2884.55 367.96c-.83 2.28.07 4.24 2.05 5.01v-10.64l-2.05 5.64Z" class="st3"/><path d="M2897.63 265.65c.61 1.39 1.17 2.8 1.7 4.23.59 1.32.99 2.78 1.42 4.18a80 80 0 0 1 3.31 16.92c.44 5.16.38 10.48-.21 15.9-.52 4.81-1.41 9.72-2.8 14.63-.94 3.31-2.06 6.63-3.22 9.95l-11.23 30.86v10.64c.58.22 1.24.35 1.99.35 3.3 0 6.86-2.41 7.94-5.36l15.18-41.72c.64-1.58 1.25-3.15 1.96-4.73 2.19-4.92 4.87-9.83 7.85-14.63 3.36-5.42 7.17-10.74 11.37-15.9 4.76-5.86 10.01-11.52 15.62-16.92 1.45-1.4 2.9-2.85 4.46-4.18 4.66-4.25 9.51-8.29 14.51-12.13 4.75-3.64 9.65-7.09 14.68-10.34 4.76-3.08 9.64-5.98 14.61-8.7a239 239 0 0 1 28.07-13.04 247 247 0 0 1 24.91-8.17c3.53-.95 7.09-1.82 10.67-2.61 5.51-1.19 11.08-2.3 16.69-2.93 2.87-.32 5.98-.66 8.82-1.22 2.46-.49 4.63-1.3 6.26-3.29.45-.54.82-1.17 1.05-1.83.22-.62.33-1.28.27-1.94-.2-2.13-2.02-3.17-3.95-3.42-1.96-.26-3.94-.36-5.9-.62q-3.105-.42-6.18-.99c-2.62-.48-5.23-1.04-7.82-1.67-3.01-.73-6-1.56-8.96-2.5-3.28-1.03-6.52-2.19-9.7-3.48-3.42-1.39-6.78-2.93-10.05-4.64-3.44-1.8-6.79-3.77-10-5.95a90 90 0 0 1-9.56-7.43c-3.13-2.8-6.05-5.83-8.72-9.07-2.8-3.41-5.3-7.05-7.48-10.88a79 79 0 0 1-2.92-5.65c-.92-1.97-1.62-4.04-2.51-6.02-.59-1.32-.99-2.78-1.42-4.18a80 80 0 0 1-3.31-16.92 82.3 82.3 0 0 1 .21-15.9c.52-4.81 1.41-9.72 2.8-14.63.45-1.58.98-3.15 1.48-4.72l15.18-41.71c1.07-2.95-.74-5.36-4.04-5.36s-6.86 2.41-7.94 5.36l-13.28 36.49c-1.25 3.32-2.54 6.63-4.02 9.95-2.19 4.92-4.87 9.83-7.85 14.63-3.36 5.42-7.17 10.74-11.37 15.9-4.76 5.86-10.01 11.52-15.62 16.92-1.45 1.4-2.9 2.85-4.46 4.18a222 222 0 0 1-21.6 17.33 230 230 0 0 1-21.72 13.56c-5.29 2.91-10.7 5.61-16.2 8.1v67.19c4.48 5.5 8.2 11.6 11.03 18.1Z" class="st3"/></svg>