<svg width="256" height="256" viewBox="0 0 256 256" fill="none" xmlns="http://www.w3.org/2000/svg">
  <path d="M79.5 88.3C79.5 62.7 105.7 42 138 42H177C177 67.6 150.8 88.3 118.5 88.3H79.5Z" fill="#62E946"/>
  <path d="M79.5 88.3C109 82.7 137.8 67.7 177 42C177 67.6 150.8 88.3 118.5 88.3H79.5Z" fill="#57D93D"/>
  <path d="M48 102H176.5C194 102 208 116 208 133.5C208 151 194 165 176.5 165H171.5C162.2 185 140.2 199 114.5 199C77.8 199 48 170.4 48 135.1V102Z" fill="#03C75A"/>
  <path d="M176 118.5H182.5C190.6 118.5 197 125 197 133.5C197 142 190.6 148.5 182.5 148.5H176V118.5Z" fill="white"/>
  <path d="M114.5 199C142.3 199 165.9 183.5 174.7 161.7C163.3 184.2 140.2 199 114.5 199Z" fill="#02B850" opacity="0.65"/>
</svg>
