<svg xmlns="http://www.w3.org/2000/svg" viewBox="0 0 64 64" role="img" aria-label="TwitCasting">
  <rect width="64" height="64" rx="14" fill="#00A7E9"/>
  <path fill="#FFFFFF" d="M18 18h28a8 8 0 0 1 8 8v13a8 8 0 0 1-8 8H33l-11 8v-8h-4a8 8 0 0 1-8-8V26a8 8 0 0 1 8-8Z"/>
  <path fill="#00A7E9" d="M24 29h-5v-5h16v5h-5v13h-6V29Zm22 4.5c0-2.1-1.3-3.8-3.5-3.8-2.5 0-3.9 1.8-3.9 4.3v.9c0 2.5 1.4 4.3 4 4.3 1.7 0 3-.7 4.1-1.8l3.5 3.4c-1.8 2.1-4.4 3.2-7.9 3.2-5.8 0-9.7-3.8-9.7-9.3v-1.3c0-5.6 3.9-9.3 9.7-9.3 5.1 0 8.7 3.3 9.1 8.1H46Z"/>
</svg>
